<svg xmlns="http://www.w3.org/2000/svg" width="49" height="54" fill="none"><g filter="url(#a)"><path fill="url(#b)" d="m22.985 21.384.61-10.387c.245-4.157-3.94-7.149-7.79-5.565l-.192.08c-3.807 1.605-4.595 6.667-1.506 9.414l7.777 6.916a.66.66 0 0 0 1.1-.456v-.002Z"/><path fill="url(#c)" d="m30.282 25.318 10.387.61c4.158.245 7.15-3.939 5.565-7.79-.027-.064-.052-.128-.08-.191-1.605-3.808-6.667-4.595-9.414-1.507l-6.915 7.778a.66.66 0 0 0 .456 1.099l.001.001Z"/><path fill="url(#d)" d="M26.349 21.384a.661.661 0 0 0 1.099.456l7.777-6.915c3.088-2.746 2.301-7.808-1.506-9.415l-.191-.079c-3.852-1.584-8.034 1.408-7.791 5.565l.61 10.387.002.001Z"/><path fill="url(#e)" d="M19.051 25.318a.661.661 0 0 0 .456-1.099l-6.916-7.778c-2.745-3.088-7.807-2.3-9.414 1.507l-.08.191c-1.584 3.851 1.408 8.034 5.565 7.79l10.388-.61.001-.001Z"/><path fill="url(#f)" d="M27.448 32.16a.66.66 0 0 0-1.1.456l-.61 10.387c-.244 4.157 3.94 7.149 7.791 5.564l.191-.079c3.808-1.606 4.595-6.667 1.507-9.414l-7.778-6.916-.001.002Z"/><path fill="url(#g)" d="M30.282 28.682a.661.661 0 0 0-.456 1.099l6.916 7.778c2.745 3.088 7.807 2.3 9.414-1.507l.08-.191c1.584-3.851-1.408-8.034-5.565-7.79l-10.387.61-.002.001Z"/><path fill="url(#h)" d="M22.985 32.616a.661.661 0 0 0-1.1-.456l-7.777 6.915c-3.088 2.746-2.3 7.808 1.506 9.415l.192.079c3.851 1.584 8.034-1.408 7.79-5.565l-.61-10.387-.002-.001Z"/><path fill="url(#i)" d="M19.507 29.781a.66.66 0 0 0-.456-1.099l-10.387-.61c-4.158-.245-7.15 3.94-5.565 7.79.027.064.052.128.08.192 1.605 3.807 6.667 4.594 9.414 1.506l6.915-7.778-.001-.001Z"/></g><g filter="url(#j)"><path fill="#fff" fill-opacity=".6" d="M13.574.691c16.926 13.456 16.926 39.162 0 52.617H.667V.691h12.907Z"/></g><defs><linearGradient id="b" x1="24.667" x2="24.667" y1="5" y2="49" gradientUnits="userSpaceOnUse"><stop stop-color="#E467FE"/><stop offset="1" stop-color="#8A43E1"/></linearGradient><linearGradient id="c" x1="24.667" x2="24.667" y1="5" y2="49" gradientUnits="userSpaceOnUse"><stop stop-color="#E467FE"/><stop offset="1" stop-color="#8A43E1"/></linearGradient><linearGradient id="d" x1="24.667" x2="24.667" y1="5" y2="49" gradientUnits="userSpaceOnUse"><stop stop-color="#E467FE"/><stop offset="1" stop-color="#8A43E1"/></linearGradient><linearGradient id="e" x1="24.667" x2="24.667" y1="5" y2="49" gradientUnits="userSpaceOnUse"><stop stop-color="#E467FE"/><stop offset="1" stop-color="#8A43E1"/></linearGradient><linearGradient id="f" x1="24.667" x2="24.667" y1="5" y2="49" gradientUnits="userSpaceOnUse"><stop stop-color="#E467FE"/><stop offset="1" stop-color="#8A43E1"/></linearGradient><linearGradient id="g" x1="24.667" x2="24.667" y1="5" y2="49" gradientUnits="userSpaceOnUse"><stop stop-color="#E467FE"/><stop offset="1" stop-color="#8A43E1"/></linearGradient><linearGradient id="h" x1="24.667" x2="24.667" y1="5" y2="49" gradientUnits="userSpaceOnUse"><stop stop-color="#E467FE"/><stop offset="1" stop-color="#8A43E1"/></linearGradient><linearGradient id="i" x1="24.667" x2="24.667" y1="5" y2="49" gradientUnits="userSpaceOnUse"><stop stop-color="#E467FE"/><stop offset="1" stop-color="#8A43E1"/></linearGradient><filter id="a" width="44" height="48" x="2.667" y="4" color-interpolation-filters="sRGB" filterUnits="userSpaceOnUse"><feFlood flood-opacity="0" result="BackgroundImageFix"/><feBlend in="SourceGraphic" in2="BackgroundImageFix" result="shape"/><feColorMatrix in="SourceAlpha" result="hardAlpha" values="0 0 0 0 0 0 0 0 0 0 0 0 0 0 0 0 0 0 127 0"/><feOffset dy="4"/><feGaussianBlur stdDeviation="1.5"/><feComposite in2="hardAlpha" k2="-1" k3="1" operator="arithmetic"/><feColorMatrix values="0 0 0 0 1 0 0 0 0 1 0 0 0 0 1 0 0 0 0.5 0"/><feBlend in2="shape" result="effect1_innerShadow_38_14936"/><feColorMatrix in="SourceAlpha" result="hardAlpha" values="0 0 0 0 0 0 0 0 0 0 0 0 0 0 0 0 0 0 127 0"/><feOffset dy="1"/><feGaussianBlur stdDeviation="1.5"/><feComposite in2="hardAlpha" k2="-1" k3="1" operator="arithmetic"/><feColorMatrix values="0 0 0 0 1 0 0 0 0 1 0 0 0 0 1 0 0 0 0.8 0"/><feBlend in2="effect1_innerShadow_38_14936" result="effect2_innerShadow_38_14936"/><feColorMatrix in="SourceAlpha" result="hardAlpha" values="0 0 0 0 0 0 0 0 0 0 0 0 0 0 0 0 0 0 127 0"/><feOffset dy="-1"/><feGaussianBlur stdDeviation=".5"/><feComposite in2="hardAlpha" k2="-1" k3="1" operator="arithmetic"/><feColorMatrix values="0 0 0 0 1 0 0 0 0 1 0 0 0 0 1 0 0 0 0.5 0"/><feBlend in2="effect2_innerShadow_38_14936" result="effect3_innerShadow_38_14936"/></filter><filter id="j" width="31.602" height="58.617" x="-2.333" y="-2.309" color-interpolation-filters="sRGB" filterUnits="userSpaceOnUse"><feFlood flood-opacity="0" result="BackgroundImageFix"/><feGaussianBlur in="BackgroundImageFix" stdDeviation="1.5"/><feComposite in2="SourceAlpha" operator="in" result="effect1_backgroundBlur_38_14936"/><feBlend in="SourceGraphic" in2="effect1_backgroundBlur_38_14936" result="shape"/></filter></defs></svg>
