<svg xmlns="http://www.w3.org/2000/svg" width="49" height="54" fill="none"><g filter="url(#a)"><path fill="url(#b)" d="M39.842 27c1.342-.83 2.462-1.671 3.254-2.488 4.317-4.464 4.317-11.7 0-16.164-4.317-4.464-11.317-4.464-15.634 0-1.023 1.058-2.092 2.699-3.129 4.678-1.036-1.978-2.105-3.62-3.129-4.678-4.317-4.464-11.316-4.464-15.633 0-4.317 4.463-4.317 11.7 0 16.164.792.818 1.912 1.659 3.254 2.488-1.342.83-2.462 1.671-3.254 2.488-4.317 4.464-4.317 11.7 0 16.164 4.317 4.464 11.316 4.464 15.633 0 1.024-1.058 2.093-2.699 3.13-4.678 1.036 1.978 2.105 3.619 3.128 4.678 4.317 4.464 11.317 4.464 15.634 0 4.317-4.463 4.317-11.7 0-16.164-.792-.818-1.912-1.659-3.254-2.488Zm-13.843 1.722-1.666 9.688-1.665-9.688L13.298 27l9.37-1.722 1.665-9.688L26 25.278 35.369 27l-9.37 1.722Z"/></g><g filter="url(#c)"><path fill="#fff" fill-opacity=".6" d="M13.241.691c16.925 13.456 16.925 39.162 0 52.617H.333V.691h12.908Z"/></g><defs><filter id="a" width="44" height="48" x="2.333" y="4" color-interpolation-filters="sRGB" filterUnits="userSpaceOnUse"><feFlood flood-opacity="0" result="BackgroundImageFix"/><feBlend in="SourceGraphic" in2="BackgroundImageFix" result="shape"/><feColorMatrix in="SourceAlpha" result="hardAlpha" values="0 0 0 0 0 0 0 0 0 0 0 0 0 0 0 0 0 0 127 0"/><feOffset dy="4"/><feGaussianBlur stdDeviation="1.5"/><feComposite in2="hardAlpha" k2="-1" k3="1" operator="arithmetic"/><feColorMatrix values="0 0 0 0 1 0 0 0 0 1 0 0 0 0 1 0 0 0 0.5 0"/><feBlend in2="shape" result="effect1_innerShadow_38_14892"/><feColorMatrix in="SourceAlpha" result="hardAlpha" values="0 0 0 0 0 0 0 0 0 0 0 0 0 0 0 0 0 0 127 0"/><feOffset dy="1"/><feGaussianBlur stdDeviation="1.5"/><feComposite in2="hardAlpha" k2="-1" k3="1" operator="arithmetic"/><feColorMatrix values="0 0 0 0 1 0 0 0 0 1 0 0 0 0 1 0 0 0 0.8 0"/><feBlend in2="effect1_innerShadow_38_14892" result="effect2_innerShadow_38_14892"/><feColorMatrix in="SourceAlpha" result="hardAlpha" values="0 0 0 0 0 0 0 0 0 0 0 0 0 0 0 0 0 0 127 0"/><feOffset dy="-1"/><feGaussianBlur stdDeviation=".5"/><feComposite in2="hardAlpha" k2="-1" k3="1" operator="arithmetic"/><feColorMatrix values="0 0 0 0 1 0 0 0 0 1 0 0 0 0 1 0 0 0 0.5 0"/><feBlend in2="effect2_innerShadow_38_14892" result="effect3_innerShadow_38_14892"/></filter><filter id="c" width="31.602" height="58.617" x="-2.667" y="-2.309" color-interpolation-filters="sRGB" filterUnits="userSpaceOnUse"><feFlood flood-opacity="0" result="BackgroundImageFix"/><feGaussianBlur in="BackgroundImageFix" stdDeviation="1.5"/><feComposite in2="SourceAlpha" operator="in" result="effect1_backgroundBlur_38_14892"/><feBlend in="SourceGraphic" in2="effect1_backgroundBlur_38_14892" result="shape"/></filter><linearGradient id="b" x1="24.333" x2="24.333" y1="5" y2="49" gradientUnits="userSpaceOnUse"><stop stop-color="#F59A70"/><stop offset="1" stop-color="#EF6D16"/></linearGradient></defs></svg>
