<svg xmlns="http://www.w3.org/2000/svg" width="49" height="54" viewBox="0 0 48 48" fill="none"><g clip-path="url(#a)"><g filter="url(#b)"><path fill="url(#c)" d="M44.762 3.238C41.592.068 33.089 3.186 24 10.295 14.911 3.187 6.408.07 3.238 3.238.068 6.408 3.186 14.911 10.295 24 3.187 33.089.07 41.592 3.238 44.762c3.17 3.17 11.673.052 20.762-7.057 9.089 7.108 17.592 10.225 20.762 7.057 3.17-3.17.052-11.673-7.057-20.762 7.108-9.089 10.225-17.592 7.057-20.762Z"/></g><g filter="url(#d)"><path fill="#fff" fill-opacity=".6" d="M12.908-2.309c16.925 13.456 16.925 39.162 0 52.617H0V-2.309h12.908Z"/></g></g><defs><filter id="b" width="44" height="48" x="2" y="1" color-interpolation-filters="sRGB" filterUnits="userSpaceOnUse"><feFlood flood-opacity="0" result="BackgroundImageFix"/><feBlend in="SourceGraphic" in2="BackgroundImageFix" result="shape"/><feColorMatrix in="SourceAlpha" result="hardAlpha" values="0 0 0 0 0 0 0 0 0 0 0 0 0 0 0 0 0 0 127 0"/><feOffset dy="4"/><feGaussianBlur stdDeviation="1.5"/><feComposite in2="hardAlpha" k2="-1" k3="1" operator="arithmetic"/><feColorMatrix values="0 0 0 0 1 0 0 0 0 1 0 0 0 0 1 0 0 0 0.5 0"/><feBlend in2="shape" result="effect1_innerShadow_38_14845"/><feColorMatrix in="SourceAlpha" result="hardAlpha" values="0 0 0 0 0 0 0 0 0 0 0 0 0 0 0 0 0 0 127 0"/><feOffset dy="1"/><feGaussianBlur stdDeviation="1.5"/><feComposite in2="hardAlpha" k2="-1" k3="1" operator="arithmetic"/><feColorMatrix values="0 0 0 0 1 0 0 0 0 1 0 0 0 0 1 0 0 0 0.8 0"/><feBlend in2="effect1_innerShadow_38_14845" result="effect2_innerShadow_38_14845"/><feColorMatrix in="SourceAlpha" result="hardAlpha" values="0 0 0 0 0 0 0 0 0 0 0 0 0 0 0 0 0 0 127 0"/><feOffset dy="-1"/><feGaussianBlur stdDeviation=".5"/><feComposite in2="hardAlpha" k2="-1" k3="1" operator="arithmetic"/><feColorMatrix values="0 0 0 0 1 0 0 0 0 1 0 0 0 0 1 0 0 0 0.5 0"/><feBlend in2="effect2_innerShadow_38_14845" result="effect3_innerShadow_38_14845"/></filter><filter id="d" width="31.602" height="58.617" x="-3" y="-5.309" color-interpolation-filters="sRGB" filterUnits="userSpaceOnUse"><feFlood flood-opacity="0" result="BackgroundImageFix"/><feGaussianBlur in="BackgroundImageFix" stdDeviation="1.5"/><feComposite in2="SourceAlpha" operator="in" result="effect1_backgroundBlur_38_14845"/><feBlend in="SourceGraphic" in2="effect1_backgroundBlur_38_14845" result="shape"/></filter><linearGradient id="c" x1="24" x2="24" y1="2" y2="46" gradientUnits="userSpaceOnUse"><stop stop-color="#FF8080"/><stop offset="1" stop-color="#FF2F2F"/></linearGradient><clipPath id="a"><path fill="#fff" d="M0 0h48v48H0z"/></clipPath></defs></svg>
