<svg xmlns="http://www.w3.org/2000/svg" width="32" height="32" viewBox="-1 5 28 28" fill="none">
  <path fill="#111" d="m13.049 15.623.346-5.892c.139-2.358-2.235-4.056-4.42-3.157l-.108.045c-2.16.911-2.606 3.783-.855 5.34l4.413 3.924a.375.375 0 0 0 .623-.259Zm4.14 2.232 5.892.346c2.359.14 4.056-2.234 3.157-4.42l-.045-.108c-.91-2.16-3.782-2.606-5.34-.854l-3.924 4.412a.375.375 0 0 0 .259.623v.001Zm-2.232-2.231c.019.312.39.466.624.258l4.412-3.923c1.752-1.557 1.305-4.429-.855-5.34a6.214 6.214 0 0 0-.108-.046c-2.185-.898-4.558.799-4.42 3.157l.347 5.893Zm-4.14 2.231a.375.375 0 0 0 .259-.623l-3.923-4.413c-1.558-1.752-4.43-1.305-5.34.855l-.046.109c-.899 2.184.799 4.557 3.157 4.419l5.893-.346v-.001Zm4.763 3.881a.375.375 0 0 0-.623.259l-.346 5.892c-.139 2.359 2.235 4.056 4.42 3.157l.108-.045c2.16-.91 2.607-3.782.855-5.34l-4.412-3.924-.001.001Zm1.609-1.972a.375.375 0 0 0-.259.623l3.923 4.412c1.558 1.752 4.43 1.305 5.34-.855l.046-.108c.899-2.185-.799-4.558-3.157-4.42l-5.892.347h-.001Zm-4.14 2.231a.375.375 0 0 0-.623-.259L8.012 25.66c-1.752 1.558-1.305 4.43.855 5.341l.108.045c2.185.899 4.558-.798 4.42-3.157l-.346-5.892-.001-.001Zm-1.973-1.608a.375.375 0 0 0-.259-.623l-5.892-.347c-2.359-.139-4.056 2.235-3.157 4.42l.045.108c.91 2.16 3.782 2.607 5.34.855l3.924-4.412-.001-.001Z"/>
</svg>
