<svg xmlns="http://www.w3.org/2000/svg" width="108" height="37" fill="none"><path fill="#111" d="m13.049 15.623.346-5.892c.139-2.358-2.235-4.056-4.42-3.157l-.108.045c-2.16.911-2.606 3.783-.855 5.34l4.413 3.924a.375.375 0 0 0 .623-.259Zm4.14 2.232 5.892.346c2.359.14 4.056-2.234 3.157-4.42l-.045-.108c-.91-2.16-3.782-2.606-5.34-.854l-3.924 4.412a.375.375 0 0 0 .259.623v.001Zm-2.232-2.231c.019.312.39.466.624.258l4.412-3.923c1.752-1.557 1.305-4.429-.855-5.34a6.214 6.214 0 0 0-.108-.046c-2.185-.898-4.558.799-4.42 3.157l.347 5.893Zm-4.14 2.231a.375.375 0 0 0 .259-.623l-3.923-4.413c-1.558-1.752-4.43-1.305-5.34.855l-.046.109c-.899 2.184.799 4.557 3.157 4.419l5.893-.346v-.001Zm4.763 3.881a.375.375 0 0 0-.623.259l-.346 5.892c-.139 2.359 2.235 4.056 4.42 3.157l.108-.045c2.16-.91 2.607-3.782.855-5.34l-4.412-3.924-.001.001Zm1.609-1.972a.375.375 0 0 0-.259.623l3.923 4.412c1.558 1.752 4.43 1.305 5.34-.855l.046-.108c.899-2.185-.799-4.558-3.157-4.42l-5.892.347h-.001Zm-4.14 2.231a.375.375 0 0 0-.623-.259L8.012 25.66c-1.752 1.558-1.305 4.43.855 5.341l.108.045c2.185.899 4.558-.798 4.42-3.157l-.346-5.892-.001-.001Zm-1.973-1.608a.375.375 0 0 0-.259-.623l-5.892-.347c-2.359-.139-4.056 2.235-3.157 4.42l.045.108c.91 2.16 3.782 2.607 5.34.855l3.924-4.412-.001-.001Zm87.021 6.568c-1.173 0-2.185-.25-3.036-.748-.836-.498-1.481-1.21-1.936-2.134-.454-.938-.682-2.046-.682-3.322 0-1.334.228-2.464.682-3.388.47-.938 1.13-1.65 1.98-2.134.851-.484 1.848-.726 2.992-.726 1.159 0 2.156.257 2.992.77.851.499 1.504 1.218 1.958 2.156.455.924.682 2.032.682 3.322 0 1.32-.234 2.442-.704 3.366-.454.924-1.107 1.628-1.958 2.112-.836.484-1.826.726-2.97.726Zm0-2.332c.88 0 1.555-.33 2.024-.99.47-.674.704-1.635.704-2.882 0-1.261-.234-2.23-.704-2.904-.469-.674-1.144-1.012-2.024-1.012-.894 0-1.576.338-2.046 1.012-.469.66-.704 1.628-.704 2.904 0 1.232.235 2.186.704 2.86.47.675 1.152 1.012 2.046 1.012Zm-24.418 2.002V14.833h2.816v11.792h-2.816Zm2.816-6.842h-.902c.073-1.188.293-2.17.66-2.948.367-.777.85-1.356 1.452-1.738.601-.396 1.29-.594 2.068-.594.733 0 1.371.162 1.914.484.557.308.99.778 1.298 1.408.308.63.462 1.423.462 2.376v7.854H80.63v-7.282c0-.542-.066-.997-.198-1.364-.132-.381-.338-.667-.616-.858-.279-.19-.623-.286-1.034-.286-.352 0-.668.08-.946.242a2.15 2.15 0 0 0-.726.638 2.71 2.71 0 0 0-.462.946 3.987 3.987 0 0 0-.154 1.122Zm6.952 0h-1.298c.073-1.188.3-2.17.682-2.948.396-.777.916-1.356 1.562-1.738.645-.396 1.379-.594 2.2-.594.748 0 1.408.162 1.98.484.587.308 1.034.778 1.342 1.408.322.63.484 1.423.484 2.376v7.854h-2.816v-7.282c0-.542-.066-.997-.198-1.364-.132-.381-.338-.667-.616-.858-.264-.19-.609-.286-1.034-.286-.352 0-.668.08-.946.242a2.15 2.15 0 0 0-.726.638 2.71 2.71 0 0 0-.462.946 3.987 3.987 0 0 0-.154 1.122Zm-19.123-1.782c0 .396.132.697.396.902.264.206.616.367 1.056.484.455.103.946.198 1.474.286.528.074 1.056.176 1.584.308a6.338 6.338 0 0 1 1.452.55c.44.235.792.558 1.056.968.279.41.418.96.418 1.65 0 .748-.22 1.408-.66 1.98-.425.572-1.012 1.02-1.76 1.342-.748.323-1.62.484-2.618.484-1.452 0-2.67-.337-3.652-1.012-.968-.69-1.555-1.745-1.76-3.168h2.816c.102.63.388 1.122.858 1.474.484.352 1.093.528 1.826.528.704 0 1.232-.132 1.584-.396.352-.278.528-.63.528-1.056 0-.381-.132-.674-.396-.88-.264-.205-.616-.36-1.056-.462a20.481 20.481 0 0 0-1.43-.286 28.601 28.601 0 0 1-1.54-.308 6.43 6.43 0 0 1-1.43-.55c-.425-.25-.77-.58-1.034-.99-.264-.425-.396-.982-.396-1.672 0-.645.169-1.24.506-1.782.337-.557.843-1.012 1.518-1.364.674-.352 1.525-.528 2.552-.528.91 0 1.723.147 2.442.44a4.194 4.194 0 0 1 1.782 1.364c.484.616.777 1.416.88 2.398h-2.816c-.118-.718-.382-1.232-.792-1.54-.396-.308-.931-.462-1.606-.462-.557 0-.997.125-1.32.374-.308.25-.462.558-.462.924Zm-7.747 8.624V14.833h2.816v11.792h-2.816Zm0-13.112v-2.728h2.816v2.728h-2.816Zm-8.679 13.112V14.833h2.816v11.792h-2.816Zm2.816-6.27h-.88c.058-1.378.278-2.493.66-3.344.396-.865.894-1.496 1.496-1.892a3.402 3.402 0 0 1 1.958-.616c.234 0 .454.03.66.088.22.059.38.14.484.242v2.442a2.652 2.652 0 0 0-.594-.11 5.013 5.013 0 0 0-.704-.044c-.528 0-.99.08-1.386.242a2.3 2.3 0 0 0-.946.66c-.25.279-.44.616-.572 1.012a4.496 4.496 0 0 0-.176 1.32Zm-16.24 6.27v-14.96h2.97v14.96h-2.97Zm5.61-5.104H36.63v-2.354h3.3c.953 0 1.672-.234 2.156-.704.484-.47.726-1.092.726-1.87 0-.792-.25-1.415-.748-1.87-.484-.47-1.173-.704-2.068-.704H36.63v-2.354h3.41c1.203 0 2.237.198 3.102.594.865.396 1.533.96 2.002 1.694.47.719.704 1.592.704 2.618 0 1.57-.52 2.787-1.562 3.652-1.041.866-2.442 1.298-4.202 1.298Z"/></svg>